<?xml version="1.0" encoding="UTF-8"?>
<!DOCTYPE svg PUBLIC "-//W3C//DTD SVG 1.1//EN" "http://www.w3.org/Graphics/SVG/1.1/DTD/svg11.dtd">
<svg xmlns="http://www.w3.org/2000/svg" version="1.1" width="177px" height="106px" style="shape-rendering:geometricPrecision; text-rendering:geometricPrecision; image-rendering:optimizeQuality; fill-rule:evenodd; clip-rule:evenodd" xmlns:xlink="http://www.w3.org/1999/xlink">
<g><path style="opacity:0.985" fill="#fbfbfb" d="M 71.5,11.5 C 71.0618,11.4346 70.7284,11.6012 70.5,12C 71.9557,13.7448 73.289,15.5781 74.5,17.5C 76.1449,16.9638 76.4782,16.2971 75.5,15.5C 75.5,15.1667 75.5,14.8333 75.5,14.5C 77.4044,14.2624 78.7377,13.2624 79.5,11.5C 80.343,9.82665 81.6763,8.65999 83.5,8C 94.7301,3.80652 106.063,3.47318 117.5,7C 120.985,8.67493 123.985,10.8416 126.5,13.5C 128.528,17.3617 128.861,21.3617 127.5,25.5C 128.7,26.2916 130.033,26.2916 131.5,25.5C 144.009,24.9933 154.343,29.3267 162.5,38.5C 165.59,46.5159 162.923,52.3492 154.5,56C 150.586,57.2827 146.586,58.1161 142.5,58.5C 142.647,64.5224 140.314,69.3558 135.5,73C 121.183,82.4343 106.183,83.7676 90.5,77C 88.6667,75.1667 86.8333,73.3333 85,71.5C 78.1899,80.8851 69.0232,84.3851 57.5,82C 46.6654,79.1455 42.3321,72.3122 44.5,61.5C 43.6667,61.1667 42.8333,60.8333 42,60.5C 32.2146,63.8811 23.0479,62.7144 14.5,57C 10.8308,52.7968 10.4974,48.2968 13.5,43.5C 13.5,42.8333 13.8333,42.5 14.5,42.5C 15.9063,42.0269 16.573,41.0269 16.5,39.5C 20.1272,36.3475 24.1272,33.6808 28.5,31.5C 29.3857,30.675 29.719,29.675 29.5,28.5C 30.4674,29.8062 31.8007,30.4729 33.5,30.5C 32.3811,24.518 32.3811,18.8513 33.5,13.5C 35.0542,9.87685 37.7209,7.37685 41.5,6C 49.0767,3.21151 56.7434,2.87818 64.5,5C 67.3312,6.66571 69.6645,8.83238 71.5,11.5 Z"/></g>
<g><path style="opacity:0.004" fill="#252525" d="M 79.5,11.5 C 78.7377,13.2624 77.4044,14.2624 75.5,14.5C 76.2623,12.7376 77.5956,11.7376 79.5,11.5 Z"/></g>
<g><path style="opacity:0.033" fill="#080808" d="M 33.5,13.5 C 32.3811,18.8513 32.3811,24.518 33.5,30.5C 31.8007,30.4729 30.4674,29.8062 29.5,28.5C 28.6715,22.7684 30.0048,17.7684 33.5,13.5 Z"/></g>
<g><path style="opacity:0.009" fill="#1e1e1e" d="M 71.5,11.5 C 72.8333,12.8333 74.1667,14.1667 75.5,15.5C 76.4782,16.2971 76.1449,16.9638 74.5,17.5C 73.289,15.5781 71.9557,13.7448 70.5,12C 70.7284,11.6012 71.0618,11.4346 71.5,11.5 Z"/></g>
<g><path style="opacity:0.041" fill="#212121" d="M 126.5,13.5 C 130.093,16.5896 131.759,20.5896 131.5,25.5C 130.033,26.2916 128.7,26.2916 127.5,25.5C 128.861,21.3617 128.528,17.3617 126.5,13.5 Z"/></g>
<g><path style="opacity:0.112" fill="#0c0c0c" d="M 162.5,38.5 C 168.241,44.4125 168.741,50.7459 164,57.5C 158.869,62.4362 152.702,65.1028 145.5,65.5C 145.08,71.4012 142.414,75.9012 137.5,79C 131.35,84.1861 123.683,87.1861 114.5,88C 109.5,88.6667 104.5,88.6667 99.5,88C 93.6774,86.4753 88.5107,84.3086 84,81.5C 72.2514,91.4191 59.7514,92.5858 46.5,85C 41.5289,80.6347 39.5289,75.1347 40.5,68.5C 30.5326,71.2253 21.1992,69.5587 12.5,63.5C 9.26298,61.3583 7.92964,58.3583 8.5,54.5C 8.54202,51.7414 9.04202,49.0747 10,46.5C 10.4224,44.5743 11.5891,43.5743 13.5,43.5C 10.4974,48.2968 10.8308,52.7968 14.5,57C 23.0479,62.7144 32.2146,63.8811 42,60.5C 42.8333,60.8333 43.6667,61.1667 44.5,61.5C 42.3321,72.3122 46.6654,79.1455 57.5,82C 69.0232,84.3851 78.1899,80.8851 85,71.5C 86.8333,73.3333 88.6667,75.1667 90.5,77C 106.183,83.7676 121.183,82.4343 135.5,73C 140.314,69.3558 142.647,64.5224 142.5,58.5C 146.586,58.1161 150.586,57.2827 154.5,56C 162.923,52.3492 165.59,46.5159 162.5,38.5 Z"/></g>
<g><path style="opacity:0.007" fill="#000000" d="M 16.5,39.5 C 16.573,41.0269 15.9063,42.0269 14.5,42.5C 14.427,40.9731 15.0937,39.9731 16.5,39.5 Z"/></g>
<g><path style="opacity:1" fill="#434343" d="M 44.5,39.5 C 52.4545,39.6203 55.9545,43.6203 55,51.5C 51.9552,54.4359 48.4552,55.1025 44.5,53.5C 46.3308,49.7592 46.9975,45.7592 46.5,41.5C 44.0065,41.8693 43.3398,41.2027 44.5,39.5 Z"/></g>
<g><path style="opacity:1" fill="#fafafa" d="M 48.5,41.5 C 53.6039,43.8604 54.6039,47.3604 51.5,52C 50.552,52.4828 49.552,52.6495 48.5,52.5C 48.5,48.8333 48.5,45.1667 48.5,41.5 Z"/></g>
<g><path style="opacity:1" fill="#1e1e1e" d="M 56.5,44.5 C 59.1873,44.3359 61.854,44.5026 64.5,45C 65.7112,45.8928 65.7112,46.7261 64.5,47.5C 62.9291,46.6906 61.2624,46.3573 59.5,46.5C 59.2436,48.7925 59.5769,50.9592 60.5,53C 59.1667,53.6667 57.8333,53.6667 56.5,53C 57.6787,50.2043 57.6787,47.3709 56.5,44.5 Z"/></g>
<g><path style="opacity:1" fill="#1e1e1e" d="M 71.5,52.5 C 67.5062,54.3488 66.0062,53.0155 67,48.5C 68.3068,47.2283 69.8068,46.2283 71.5,45.5C 69.9936,44.2528 68.4936,44.2528 67,45.5C 66.5438,43.2868 67.5438,42.2868 70,42.5C 71.8895,42.7852 73.2229,43.7852 74,45.5C 74.2868,47.8907 74.7868,50.2241 75.5,52.5C 74.3002,53.2916 72.9669,53.2916 71.5,52.5 Z"/></g>
<g><path style="opacity:1" fill="#303030" d="M 76.5,43.5 C 79.6249,43.8182 82.4582,44.8182 85,46.5C 86.3276,51.3376 84.4943,53.671 79.5,53.5C 79.5,55.5 79.5,57.5 79.5,59.5C 78.325,59.719 77.325,59.3857 76.5,58.5C 77.778,53.5012 77.778,48.5012 76.5,43.5 Z"/></g>
<g><path style="opacity:1" fill="#ededed" d="M 79.5,46.5 C 81.9477,46.0847 83.2811,47.0847 83.5,49.5C 81.8333,53.5 80.1667,53.5 78.5,49.5C 78.685,48.4163 79.0183,47.4163 79.5,46.5 Z"/></g>
<g><path style="opacity:1" fill="#656565" d="M 112.5,51.5 C 112.5,52.1667 112.833,52.5 113.5,52.5C 112.432,53.4345 111.099,53.7678 109.5,53.5C 108.398,50.5727 107.398,47.5727 106.5,44.5C 107.651,43.269 108.817,43.269 110,44.5C 109.97,47.3615 110.803,49.6948 112.5,51.5 Z"/></g>
<g><path style="opacity:1" fill="#202020" d="M 119.5,44.5 C 121.264,43.2878 122.93,43.6212 124.5,45.5C 126.191,43.7438 128.191,43.2438 130.5,44C 124.285,46.1448 123.952,48.9781 129.5,52.5C 128.311,53.4287 126.978,53.762 125.5,53.5C 125.116,49.0577 124.116,48.7243 122.5,52.5C 121.635,53.5827 120.635,53.7494 119.5,53C 120.833,51.3333 122.167,49.6667 123.5,48C 122.897,45.9286 121.564,44.7619 119.5,44.5 Z"/></g>
<g><path style="opacity:1" fill="#313131" d="M 98.5,42.5 C 100.722,42.178 102.556,42.8446 104,44.5C 105.021,47.1051 105.855,49.7717 106.5,52.5C 103.534,53.3188 100.367,53.3188 97,52.5C 89.2841,56.3128 85.9508,53.9794 87,45.5C 91.2322,42.3458 93.7322,43.3458 94.5,48.5C 92.5,48.5 90.5,48.5 88.5,48.5C 89.1275,52.8284 91.1275,53.495 94.5,50.5C 95.086,50.7093 95.586,51.0426 96,51.5C 97.0438,48.2898 99.2104,46.2898 102.5,45.5C 100.602,44.2655 98.935,44.5989 97.5,46.5C 97.1667,46.1667 96.8333,45.8333 96.5,45.5C 97.1925,44.4822 97.8592,43.4822 98.5,42.5 Z"/></g>
<g><path style="opacity:1" fill="#c0c0c0" d="M 88.5,46.5 C 90.1849,45.156 91.8516,45.3227 93.5,47C 91.735,47.6397 90.0683,47.4731 88.5,46.5 Z"/></g>
<g><path style="opacity:1" fill="#1d1d1d" d="M 113.5,52.5 C 112.833,52.5 112.5,52.1667 112.5,51.5C 115.122,42.4057 116.788,42.9057 117.5,53C 116.072,53.5791 114.738,53.4124 113.5,52.5 Z"/></g>
<g><path style="opacity:1" fill="#e0e0e0" d="M 71.5,52.5 C 68.306,52.8244 67.306,51.6578 68.5,49C 69.7932,48.51 71.1266,48.3433 72.5,48.5C 72.5674,49.9587 72.2341,51.2921 71.5,52.5 Z"/></g>
<g><path style="opacity:1" fill="#e6e6e6" d="M 99.5,48.5 C 100.833,48.5 102.167,48.5 103.5,48.5C 103.55,50.5901 102.55,51.9234 100.5,52.5C 98.3576,51.5629 98.0243,50.2296 99.5,48.5 Z"/></g>
</svg>
